<?xml version="1.0" encoding="UTF-8"?>
<svg version="1.1" xmlns="http://www.w3.org/2000/svg" width="1024" height="1024">
<path d="M0 0 C337.92 0 675.84 0 1024 0 C1024 337.92 1024 675.84 1024 1024 C686.08 1024 348.16 1024 0 1024 C0 686.08 0 348.16 0 0 Z " fill="#FEFEFE" transform="translate(0,0)"/>
<path d="M0 0 C1.98429975 -0.00418109 3.96859711 -0.00966283 5.9528901 -0.01631981 C11.3642642 -0.0306914 16.77548492 -0.02655576 22.18686712 -0.019153 C28.03909736 -0.01440299 33.89129529 -0.02694734 39.74351501 -0.03717041 C51.19256562 -0.05432801 62.64156127 -0.05520471 74.09062139 -0.04995751 C83.40072285 -0.04590885 92.71080973 -0.04730448 102.02091026 -0.05270576 C103.36161247 -0.05346265 104.70231467 -0.05421863 106.04301688 -0.05497371 C108.06367405 -0.05611898 110.08433123 -0.05726887 112.10498839 -0.05843295 C130.87554994 -0.069128 149.64610552 -0.07387346 168.41666889 -0.06596279 C169.47659946 -0.06551703 169.47659946 -0.06551703 170.55794277 -0.06506227 C176.2951167 -0.06261367 182.03229055 -0.06000191 187.7694644 -0.05737813 C210.14078697 -0.04727838 232.51203446 -0.05562998 254.88334656 -0.07887268 C280.05602593 -0.10498396 305.22866013 -0.1177829 330.40135354 -0.11068493 C333.0888905 -0.10996894 335.77642748 -0.10929455 338.46396446 -0.10864449 C339.1256348 -0.10847468 339.78730514 -0.10830487 340.46902609 -0.10812991 C350.42739973 -0.10583351 360.38573103 -0.11381536 370.34409523 -0.12693596 C381.67827102 -0.14168467 393.01234178 -0.14225847 404.34651557 -0.12486505 C410.12308145 -0.11637468 415.89945993 -0.11415749 421.67601585 -0.1295166 C426.97548827 -0.14343215 432.27461395 -0.13851279 437.57406666 -0.11927737 C439.47970021 -0.11553802 441.38536201 -0.11837887 443.29097024 -0.12888902 C473.3064692 -0.28251697 501.71239813 9.06704558 524.94316101 28.38768005 C525.8648407 29.1456488 526.78652039 29.90361755 527.73612976 30.68455505 C548.82073042 48.88452064 563.59835446 75.70970948 566.94316101 103.38768005 C567.03367424 106.21517876 567.08115417 109.01726939 567.07458878 111.8440094 C567.07766773 113.08780594 567.07766773 113.08780594 567.08080888 114.35672969 C567.08646362 117.13545343 567.08502351 119.91412737 567.08360291 122.69285583 C567.08618742 124.70523479 567.08920082 126.71761323 567.09260631 128.72999096 C567.10066949 134.26058847 567.1024655 139.79117299 567.10320377 145.32177567 C567.10505553 151.28655231 567.11260351 157.25132222 567.11933899 163.21609497 C567.13362629 176.93975671 567.13944838 190.66341747 567.14403093 204.38708494 C567.14636858 211.1724758 567.14997144 217.95786582 567.15372631 224.74325603 C567.16656083 247.98165821 567.17727979 271.22005993 567.18072891 294.45846558 C567.18095054 295.91669045 567.18117233 297.37491532 567.18139426 298.83314019 C567.1816149 300.29483815 567.18183539 301.75653611 567.18205571 303.21823406 C567.18249826 306.15052986 567.18294537 309.08282566 567.18339539 312.01512146 C567.18350478 312.74215795 567.18361417 313.46919443 567.18372687 314.21826233 C567.18735622 337.78403329 567.20327217 361.34977347 567.22658575 384.91553265 C567.25120323 409.84500009 567.26490265 434.77444995 567.26609683 459.7039299 C567.26626828 462.44264985 567.2664837 465.18136978 567.26673126 467.92008972 C567.26678703 468.59441346 567.2668428 469.2687372 567.26690026 469.96349499 C567.26804907 480.79736713 567.27905664 491.63120759 567.29361832 502.46506905 C567.30801235 513.36298445 567.31095224 524.26085748 567.30317834 535.15877968 C567.29927639 541.05830265 567.3001793 546.95771939 567.31423569 552.85722923 C567.32700167 558.26473258 567.32575333 563.67205018 567.31364498 569.07955337 C567.31169265 571.02912883 567.31474476 572.97871757 567.32348934 574.92827439 C567.37065516 586.16056891 566.68226785 596.46184328 563.94316101 607.38768005 C563.75118676 608.17532147 563.55921252 608.96296289 563.36142087 609.77447224 C555.19503593 641.20252423 533.61893871 667.91993575 505.96757507 684.41551208 C483.08801181 697.75667735 459.54357993 702.86939651 433.38021851 702.77536011 C431.4617651 702.77954264 429.54331416 702.78502516 427.62486774 702.79167992 C422.40010696 702.80603265 417.17550528 702.80192189 411.95073617 702.79451311 C406.29755145 702.78975835 400.64440003 702.80231159 394.9912262 702.81253052 C383.93434476 702.82967888 372.87752024 702.83056676 361.82062896 702.82531761 C352.82854184 702.82126724 343.83647147 702.82272975 334.84438515 702.82806587 C333.56191996 702.82881429 332.27945477 702.82956272 330.958127 702.83033382 C328.3523427 702.83186538 325.7465584 702.83340373 323.14077411 702.83494879 C305.65976535 702.84476896 288.17876659 702.84895037 270.69775677 702.8413229 C270.01525339 702.84102573 269.33275001 702.84072855 268.6295647 702.84042237 C263.08838242 702.83797384 257.54720021 702.83536205 252.006018 702.83273824 C230.39983106 702.82263879 208.79372187 702.83099027 187.18754578 702.85423279 C162.86963648 702.88035057 138.55178516 702.89309176 114.23385936 702.88604504 C101.37396729 702.88255893 88.51413902 702.88474469 75.65425682 702.90229607 C64.70697138 702.91705258 53.75979468 702.91760846 42.81251129 702.90022516 C37.23428835 702.89174118 31.65625938 702.88950175 26.0780468 702.90487671 C20.95866565 702.91881159 15.83964304 702.91384864 10.72028217 702.89463747 C8.88128211 702.89090396 7.0422527 702.89372168 5.20327898 702.90424912 C-25.81628765 703.06901292 -56.09209792 693.50666772 -80.05683899 673.38768005 C-80.91406555 672.66967224 -81.77129211 671.95166443 -82.65449524 671.2118988 C-102.00756053 654.37144168 -115.96220248 632.39792156 -122.05683899 607.38768005 C-122.30452925 606.39833271 -122.55221952 605.40898536 -122.80741554 604.3896578 C-125.25553603 593.57336752 -125.48200762 583.15846638 -125.44451904 572.10269165 C-125.44869898 570.08141911 -125.45418009 568.06014892 -125.46083885 566.03888303 C-125.47522563 560.52070581 -125.47106997 555.00267882 -125.46367204 549.48449361 C-125.45892585 543.51910799 -125.47146305 537.5537542 -125.48168945 531.58837891 C-125.49786391 520.58923363 -125.50032878 509.59013097 -125.49538446 498.59097722 C-125.49081771 488.4260559 -125.49143837 478.26115223 -125.49722481 468.09623146 C-125.49798169 466.7298702 -125.49873767 465.36350894 -125.49949275 463.99714768 C-125.50063801 461.9378653 -125.5017879 459.87858293 -125.502952 457.81930056 C-125.51364851 438.6875752 -125.518391 419.55585569 -125.51048183 400.42412853 C-125.51018466 399.70377118 -125.50988749 398.98341382 -125.50958131 398.24122745 C-125.50713267 392.39236749 -125.50452093 386.54350761 -125.50189718 380.69464772 C-125.49179722 357.88713769 -125.50014882 335.0797013 -125.52339172 312.27220154 C-125.54949789 286.61391283 -125.56230329 260.95566844 -125.55520397 235.29736596 C-125.55448798 232.55843596 -125.55381358 229.81950596 -125.55316353 227.08057594 C-125.55299372 226.40624333 -125.55282391 225.73191071 -125.55264896 225.03714377 C-125.55035168 214.88419377 -125.55829556 204.73128509 -125.571455 194.57834435 C-125.58640491 183.02380057 -125.58678547 171.46935159 -125.56938409 159.91480919 C-125.56088868 154.02496049 -125.55868898 148.13529567 -125.57403564 142.2454567 C-125.58793601 136.84360882 -125.58305097 131.44210143 -125.56379641 126.04027299 C-125.56005247 124.09626957 -125.56291147 122.15223853 -125.57340806 120.20825984 C-125.71604156 91.74663059 -117.07254328 64.99643492 -98.05683899 43.38768005 C-97.35558899 42.53174255 -96.65433899 41.67580505 -95.93183899 40.79393005 C-82.63282085 25.15859791 -64.62480173 13.77722053 -45.55683899 6.51268005 C-44.84672668 6.23827087 -44.13661438 5.96386169 -43.40498352 5.68113708 C-29.16904897 0.57852655 -14.93391706 -0.05172101 0 0 Z " fill="#003A53" transform="translate(291.0568389892578,163.61231994628906)"/>
<path d="M0 0 C1.98429975 -0.00418109 3.96859711 -0.00966283 5.9528901 -0.01631981 C11.3642642 -0.0306914 16.77548492 -0.02655576 22.18686712 -0.019153 C28.03909736 -0.01440299 33.89129529 -0.02694734 39.74351501 -0.03717041 C51.19256562 -0.05432801 62.64156127 -0.05520471 74.09062139 -0.04995751 C83.40072285 -0.04590885 92.71080973 -0.04730448 102.02091026 -0.05270576 C103.36161247 -0.05346265 104.70231467 -0.05421863 106.04301688 -0.05497371 C108.06367405 -0.05611898 110.08433123 -0.05726887 112.10498839 -0.05843295 C130.87554994 -0.069128 149.64610552 -0.07387346 168.41666889 -0.06596279 C169.47659946 -0.06551703 169.47659946 -0.06551703 170.55794277 -0.06506227 C176.2951167 -0.06261367 182.03229055 -0.06000191 187.7694644 -0.05737813 C210.14078697 -0.04727838 232.51203446 -0.05562998 254.88334656 -0.07887268 C280.05602593 -0.10498396 305.22866013 -0.1177829 330.40135354 -0.11068493 C333.0888905 -0.10996894 335.77642748 -0.10929455 338.46396446 -0.10864449 C339.1256348 -0.10847468 339.78730514 -0.10830487 340.46902609 -0.10812991 C350.42739973 -0.10583351 360.38573103 -0.11381536 370.34409523 -0.12693596 C381.67827102 -0.14168467 393.01234178 -0.14225847 404.34651557 -0.12486505 C410.12308145 -0.11637468 415.89945993 -0.11415749 421.67601585 -0.1295166 C426.97548827 -0.14343215 432.27461395 -0.13851279 437.57406666 -0.11927737 C439.47970021 -0.11553802 441.38536201 -0.11837887 443.29097024 -0.12888902 C473.3064692 -0.28251697 501.71239813 9.06704558 524.94316101 28.38768005 C525.8648407 29.1456488 526.78652039 29.90361755 527.73612976 30.68455505 C548.81220271 48.87715963 563.61526801 75.71468629 566.94316101 103.38768005 C567.07431954 106.27613861 567.07419606 109.15896982 567.06341553 112.05001831 C567.06426995 112.89721107 567.06512438 113.74440383 567.06600469 114.6172691 C567.06764548 117.44237259 567.06216114 120.26741606 567.0566864 123.09251404 C567.0564042 125.12307738 567.05656291 127.15364082 567.05712891 129.1842041 C567.0574156 134.68775525 567.05153952 140.19128457 567.04455495 145.69483066 C567.03830014 151.44971019 567.03771593 157.20459024 567.03652954 162.95947266 C567.03342251 173.8531959 567.02521756 184.7469091 567.01518005 195.64062792 C567.00399944 208.04442232 566.99850355 220.44821719 566.99348462 232.85201538 C566.98303444 258.36390917 566.96544713 283.87579405 566.94316101 309.38768005 C563.90451457 309.08348822 560.86638951 308.77511241 557.82841492 308.46434021 C556.97385208 308.37922684 556.11928925 308.29411346 555.23883057 308.2064209 C548.78126448 307.54103472 542.59930691 306.41576015 536.31816101 304.76268005 C534.18144981 304.22879569 532.04473063 303.69494324 529.90800476 303.16111755 C527.58635651 302.57010398 525.26474357 301.97895166 522.94316101 301.38768005 C517.59272916 300.03896948 512.23876958 298.70554842 506.88066101 297.38768005 C505.83395233 297.12934891 505.83395233 297.12934891 504.76609802 296.86579895 C494.70521887 294.39426247 484.65099738 292.35910504 474.44316101 290.57518005 C442.76379347 284.95738802 411.66622469 275.22135447 380.91581726 265.8603363 C357.85549534 258.96468716 334.30677492 257.20056625 310.36625671 257.20237732 C307.17625668 257.20021102 303.98661486 257.18206281 300.79667664 257.16307068 C264.31875985 257.06190567 230.95238561 263.34857023 196.94316101 276.38768005 C193.75934516 277.60600024 190.57122807 278.81216721 187.38066101 280.01268005 C186.35754822 280.40991272 186.35754822 280.40991272 185.31376648 280.81517029 C168.60917136 287.09810982 151.20555411 290.21515363 133.69462585 293.28904724 C119.68060205 295.76547608 106.36910582 299.11990853 92.92637634 303.8184967 C90.94316101 304.38768005 90.94316101 304.38768005 87.94316101 304.38768005 C87.86799255 303.67039734 87.7928241 302.95311462 87.71537781 302.21409607 C86.41074011 289.80376691 85.09390132 277.3979743 83.56816101 265.01268005 C81.80310415 250.65285447 80.28344137 236.26582793 78.74443054 221.88035583 C78.53878211 219.96480233 78.33289451 218.04927449 78.12675476 216.1337738 C78.0273056 215.20860962 77.92785645 214.28344543 77.82539368 213.33024597 C77.07629389 206.43569793 76.22627474 199.55864491 75.30717468 192.68479919 C74.81631634 188.23876165 74.74994952 183.85301225 74.94316101 179.38768005 C75.90222351 178.95455505 75.90222351 178.95455505 76.88066101 178.51268005 C79.0952218 177.55944554 79.0952218 177.55944554 79.94316101 175.38768005 C80.06771901 172.56339984 80.12832873 169.7745748 80.13066101 166.95018005 C80.1429071 166.1735199 80.1551532 165.39685974 80.16777039 164.59666443 C80.17790296 160.67535697 80.16570271 158.72149261 77.94316101 155.38768005 C73.98316101 155.05768005 70.02316101 154.72768005 65.94316101 154.38768005 C65.94316101 139.86768005 65.94316101 125.34768005 65.94316101 110.38768005 C67.92316101 109.39768005 69.90316101 108.40768005 71.94316101 107.38768005 C73.35343009 106.15880801 73.35343009 106.15880801 73.75566101 102.57518005 C73.73446615 98.14545334 72.07692683 95.94935893 69.03959656 92.80686951 C66.40384859 90.25738092 63.70699526 87.79760164 60.94316101 85.38768005 C60.32368591 84.8460321 59.70421082 84.30438416 59.06596375 83.74632263 C58.41571228 83.17808777 57.76546082 82.60985291 57.09550476 82.0243988 C55.71125702 80.81231128 54.3271473 79.6000661 52.94316101 78.38768005 C52.21306824 77.75313904 51.48297546 77.11859802 50.73075867 76.46482849 C35.9147897 63.39285934 35.9147897 63.39285934 34.76347351 57.3447113 C34.63066101 53.63768005 34.63066101 53.63768005 34.95487976 50.34080505 C34.93945541 46.45386756 33.62232933 45.10100899 30.94316101 42.38768005 C28.05454392 40.94337151 26.146684 41.010795 22.94316101 41.38768005 C20.37030377 43.56031505 18.45319182 45.36761844 16.94316101 48.38768005 C16.94424866 49.72016785 16.94424866 49.72016785 16.94535828 51.07957458 C16.94869893 57.56140448 16.43696727 61.69327103 11.97050476 66.56736755 C10.30388816 68.16437763 8.60615887 69.72947777 6.88066101 71.26268005 C6.04599304 72.0515863 5.21132507 72.84049255 4.35136414 73.65330505 C-0.66684278 78.36251871 -5.86215617 82.87502652 -11.05683899 87.38768005 C-17.57986552 92.67594384 -17.57986552 92.67594384 -21.83027649 99.6650238 C-21.99532956 103.07400451 -21.2622235 105.11147329 -19.24433899 107.82518005 C-17.05300975 109.5523375 -17.05300975 109.5523375 -14.05683899 110.38768005 C-14.05683899 124.90768005 -14.05683899 139.42768005 -14.05683899 154.38768005 C-17.68683899 154.71768005 -21.31683899 155.04768005 -25.05683899 155.38768005 C-28.27481995 158.60566102 -27.46535352 162.44837434 -27.49433899 166.82518005 C-27.54364563 168.13325623 -27.54364563 168.13325623 -27.59394836 169.46775818 C-27.61433192 171.87857632 -27.59248335 174.03519586 -27.05683899 176.38768005 C-26.22281555 176.85303162 -25.38879211 177.31838318 -24.52949524 177.7978363 C-23.71351868 178.32248474 -22.89754211 178.84713318 -22.05683899 179.38768005 C-21.03216628 187.02284753 -22.42319179 195.15350203 -23.30683899 202.75486755 C-23.44060944 203.95162613 -23.57437988 205.1483847 -23.71220398 206.38140869 C-24.0788676 209.65755825 -24.45051365 212.93310055 -24.8237381 216.20850754 C-25.46704375 221.87755832 -26.0933948 227.54852797 -26.72216415 233.21920586 C-26.88889916 234.72254034 -27.05583501 236.22585255 -27.22296524 237.72914314 C-29.28886803 256.31709014 -31.23548676 274.91727815 -33.16627502 293.51967621 C-33.43049443 296.06224142 -33.69565914 298.60470629 -33.96113586 301.1471405 C-34.38253381 305.18338017 -34.80207408 309.21980853 -35.22009659 313.25639915 C-35.37375136 314.73819661 -35.52792161 316.21994073 -35.68267441 317.70162392 C-35.89681125 319.75395034 -36.10868514 321.80649925 -36.32002258 323.8591156 C-36.49820023 325.5781031 -36.49820023 325.5781031 -36.67997742 327.33181763 C-37.20768683 333.01113582 -37.61937886 338.70069834 -38.05683899 344.38768005 C-66.76683899 344.38768005 -95.47683899 344.38768005 -125.05683899 344.38768005 C-125.14519125 313.86469183 -125.21898196 283.34182224 -125.26110031 252.81874657 C-125.26610252 249.20679579 -125.27127987 245.59484528 -125.27656555 241.9828949 C-125.27761479 241.26388771 -125.27866404 240.54488052 -125.27974507 239.80408524 C-125.29710153 228.19585491 -125.32861264 216.58770464 -125.36545017 204.97952165 C-125.40299268 193.0487688 -125.42510281 181.11805759 -125.43319297 169.18724811 C-125.43816609 162.49416065 -125.45052827 155.80126523 -125.47975922 149.10823441 C-125.50709977 142.79634537 -125.51524652 136.48471027 -125.50926971 130.17276764 C-125.51036166 127.86790711 -125.51820343 125.56303725 -125.53366089 123.2582283 C-125.72324087 93.50758882 -118.05216108 66.10963698 -98.05683899 43.38768005 C-97.35558899 42.53174255 -96.65433899 41.67580505 -95.93183899 40.79393005 C-82.63282085 25.15859791 -64.62480173 13.77722053 -45.55683899 6.51268005 C-44.84672668 6.23827087 -44.13661438 5.96386169 -43.40498352 5.68113708 C-29.16904897 0.57852655 -14.93391706 -0.05172101 0 0 Z " fill="#2DA2A9" transform="translate(291.0568389892578,163.61231994628906)"/>
<path d="M0 0 C3.22718567 -0.00218348 6.45402691 -0.02039291 9.68115234 -0.03930664 C21.94216093 -0.07240002 33.85195511 0.52432661 45.99755859 2.18530273 C47.50066992 2.36968431 49.00401122 2.55220004 50.50756836 2.73291016 C64.74095523 4.48049879 78.377492 8.7612437 92.10302734 12.76098633 C119.86640865 20.8494018 147.49594343 28.84799567 175.91162109 34.32983398 C177.91956004 34.71850425 179.92737159 35.10783319 181.93505859 35.49780273 C182.92828125 35.68979248 183.92150391 35.88178223 184.94482422 36.07958984 C194.48350808 37.97733456 203.88747116 40.35151308 213.31005859 42.74780273 C236.48513207 48.90134133 236.48513207 48.90134133 260.19677734 52.00952148 C261.99755859 52.18530273 261.99755859 52.18530273 262.99755859 53.18530273 C263.09282665 56.13776628 263.12308312 59.06678695 263.11108398 62.01953125 C263.11123001 62.94626648 263.11137604 63.87300171 263.11152649 64.82781982 C263.11082698 67.90663961 263.10303281 70.98539971 263.09521484 74.06420898 C263.0933508 76.19270291 263.09192683 78.32119726 263.09092712 80.44969177 C263.08710087 86.06392594 263.07726967 91.67813441 263.06622314 97.2923584 C263.05601133 103.01643527 263.05143 108.74051627 263.04638672 114.46459961 C263.0356475 125.7048453 263.0185698 136.94507188 262.99755859 148.18530273 C262.66755859 148.18530273 262.33755859 148.18530273 261.99755859 148.18530273 C261.99755859 129.37530273 261.99755859 110.56530273 261.99755859 91.18530273 C246.92188899 89.38349214 246.92188899 89.38349214 232.41552734 94.69311523 C231.80644531 95.49362305 231.80644531 95.49362305 231.18505859 96.31030273 C230.10224609 97.73342773 230.10224609 97.73342773 228.99755859 99.18530273 C227.87060528 98.05834942 226.74401054 96.93103641 225.61865234 95.80249023 C224.44925739 94.6359131 223.27404361 93.47515867 222.09521484 92.31811523 C218.32703795 88.60056644 214.83160404 84.9157805 211.71240234 80.63061523 C205.88055663 75.7153922 196.70069963 76.71153031 189.56005859 76.62280273 C188.37089844 76.57317383 187.18173828 76.52354492 185.95654297 76.47241211 C179.90886396 76.40189503 175.91567282 76.5546505 171.21240234 80.59545898 C169.41399276 82.43196542 168.14531421 83.8897915 166.99755859 86.18530273 C163.81336438 84.81375588 162.02643264 83.32360291 159.87255859 80.62280273 C157.78852225 77.97504608 157.78852225 77.97504608 154.99755859 76.18530273 C153.53517701 76.04567505 152.06702149 75.96414887 150.59887695 75.91308594 C149.6871019 75.88088455 148.77532684 75.84868317 147.83592224 75.81550598 C143.64440296 75.70448493 139.45302664 75.62238908 135.26049805 75.56054688 C133.05560504 75.51894512 130.85098991 75.45763415 128.6472168 75.37597656 C115.93880963 74.24832573 115.93880963 74.24832573 104.49414062 78.46020508 C102.26179178 80.93918365 100.53566776 83.23334576 98.99755859 86.18530273 C96.27454372 83.46228786 94.8194788 80.58622045 92.99755859 77.18530273 C92.99755859 76.52530273 92.99755859 75.86530273 92.99755859 75.18530273 C87.52587343 71.83033981 80.94965751 72.81638919 74.74755859 72.81030273 C73.44947266 72.78581055 72.15138672 72.76131836 70.81396484 72.73608398 C61.7516161 72.70837038 56.09354782 73.5711946 49.27490234 79.58764648 C48.11667969 80.84254883 48.11667969 80.84254883 46.93505859 82.12280273 C43.18173869 86.05015602 39.54052961 89.22249555 34.99755859 92.18530273 C33.49161179 90.56581232 31.99295192 88.93954299 30.49755859 87.31030273 C29.66224609 86.40538086 28.82693359 85.50045898 27.96630859 84.56811523 C25.99755859 82.18530273 25.99755859 82.18530273 25.99755859 80.18530273 C18.20249634 79.12916771 10.50206765 79.05192216 2.64550781 79.26245117 C1.28634834 79.29460121 -0.07311682 79.31559178 -1.43261719 79.32592773 C-3.422363 79.34114931 -5.41174042 79.39165494 -7.40087891 79.44311523 C-8.57312012 79.46519043 -9.74536133 79.48726563 -10.953125 79.51000977 C-14.9385375 80.39260792 -15.83011519 81.79982048 -18.00244141 85.18530273 C-18.41131592 86.10174561 -18.82019043 87.01818848 -19.24145508 87.96240234 C-21.00244141 90.18530273 -21.00244141 90.18530273 -24.64428711 90.78125 C-26.15556519 90.79535812 -27.66722033 90.78384042 -29.17822266 90.75170898 C-29.98100143 90.7573436 -30.78378021 90.76297821 -31.61088562 90.76878357 C-34.17949524 90.78525851 -36.7463912 90.76968627 -39.31494141 90.74780273 C-41.87262456 90.73117719 -44.42916066 90.72217139 -46.98686218 90.73753357 C-48.57737101 90.74676863 -50.16812246 90.73779853 -51.75837708 90.707901 C-56.96794661 90.73342843 -59.84277131 91.7883366 -64.00244141 95.18530273 C-66.13694542 97.48710364 -66.13694542 97.48710364 -67.87744141 99.93530273 C-68.47298828 100.73452148 -69.06853516 101.53374023 -69.68212891 102.35717773 C-70.11783203 102.96045898 -70.55353516 103.56374023 -71.00244141 104.18530273 C-71.66244141 103.19530273 -72.32244141 102.20530273 -73.00244141 101.18530273 C-73.68306641 100.19530273 -74.36369141 99.20530273 -75.06494141 98.18530273 C-77.00244141 95.18530273 -77.00244141 95.18530273 -78.00244141 92.18530273 C-83.71326888 92.11086845 -89.4238108 92.0565664 -95.13500977 92.02050781 C-97.07581505 92.00546782 -99.01658661 91.98503059 -100.95727539 91.95898438 C-103.75496773 91.92238978 -106.55220874 91.90552825 -109.35009766 91.89233398 C-110.21079361 91.87685013 -111.07148956 91.86136627 -111.95826721 91.84541321 C-118.24625556 91.84367631 -122.84055913 92.90172109 -128.04150391 96.65795898 C-132.13838376 100.76492967 -134.4658786 104.72925381 -136.56884766 110.14624023 C-138.00244141 112.18530273 -138.00244141 112.18530273 -140.65087891 112.99389648 C-155.86202794 113.86259847 -167.43838943 109.43943353 -180.67919922 102.29858398 C-190.547573 97.56972895 -197.95464147 98.33271225 -210.00244141 97.18530273 C-211.65244141 81.01530273 -213.30244141 64.84530273 -215.00244141 48.18530273 C-196.95662996 41.69824633 -179.15156318 37.83089779 -160.29711914 34.5078125 C-143.66179532 31.54214855 -127.6407839 27.50778849 -111.87744141 21.37280273 C-110.9212793 21.00203613 -109.96511719 20.63126953 -108.97998047 20.24926758 C-107.82320801 19.79608154 -107.82320801 19.79608154 -106.64306641 19.33374023 C-83.47414282 10.40800738 -59.82365475 3.32429916 -35.00244141 1.18530273 C-34.10315918 1.09917725 -33.20387695 1.01305176 -32.27734375 0.92431641 C-21.52644806 0.01009137 -10.78328486 -0.00081432 0 0 Z " fill="#014860" transform="translate(594.00244140625,419.814697265625)"/>
<path d="M0 0 C25.08 0 50.16 0 76 0 C82.03834434 59.11960386 82.03834434 59.11960386 84.7958374 87.5501709 C85.97129388 99.66752795 87.17569528 111.78132867 88.43190384 123.8905983 C88.64359505 125.93237657 88.85466065 127.97421855 89.06552124 130.01608276 C89.20513017 131.3674936 89.34474806 132.71890352 89.484375 134.0703125 C89.55315668 134.73612398 89.62193836 135.40193546 89.69280434 136.08792305 C90.1635337 140.63861538 90.64176672 145.18848793 91.12109375 149.73828125 C91.36872705 152.12888166 91.61613415 154.51950552 91.86328125 156.91015625 C91.97863724 157.98705215 92.09399323 159.06394806 92.21284485 160.17347717 C92.85784172 166.47509439 93.14361782 172.66606496 93 179 C91.38158203 179.33306152 91.38158203 179.33306152 89.73046875 179.67285156 C79.11932527 181.91164478 68.79852382 184.71024286 58.45962524 187.97387695 C55.92673316 188.773119 53.39090828 189.5624143 50.85424805 190.34960938 C43.35867285 192.6789296 35.8727375 195.03743138 28.39453125 197.421875 C18.67049836 200.50517337 8.9997928 203.44335178 -1 205.5 C-2.15665161 205.74073242 -2.15665161 205.74073242 -3.33666992 205.98632812 C-7.35709972 206.74481658 -11.18249702 207.06928559 -15.27734375 207.03710938 C-16.16542725 207.03175171 -17.05351074 207.02639404 -17.96850586 207.02087402 C-18.63889893 207.0139856 -19.30929199 207.00709717 -20 207 C-17.69304555 181.78190807 -15.38098781 156.56428851 -13.06289864 131.34721756 C-11.9866237 119.6377853 -10.9120023 107.92820574 -9.84130859 96.21826172 C-8.90779707 86.00869603 -7.97114727 75.79942389 -7.03077018 65.5904882 C-6.53322594 60.18785323 -6.03722565 54.78508678 -5.54498672 49.38196564 C-5.08099696 44.2894747 -4.6127908 39.1973885 -4.14144135 34.10557365 C-3.96979398 32.24341559 -3.79964654 30.38111851 -3.63116837 28.51867104 C-3.39953978 25.96071591 -3.16233674 23.4033327 -2.92385864 20.8460083 C-2.82754156 19.76033707 -2.82754156 19.76033707 -2.72927868 18.65273309 C-2.13043639 12.33811896 -1.05201848 6.31211085 0 0 Z " fill="#FCF9F1" transform="translate(280,344)"/>
<path d="M0 0 C14.11030137 10.31229861 23.85521058 25.1350333 27.75488281 42.24902344 C30.46431387 61.40407092 27.68714489 79.82371567 15.88378906 95.56152344 C4.50104158 109.33017433 -9.8386801 118.94259712 -27.74121094 121.81152344 C-47.41287007 123.43694416 -65.10477212 120.19527077 -81.05371094 107.99902344 C-97.18777168 94.16228394 -104.8600361 78.21239068 -107.11621094 57.34277344 C-107.79577586 40.18375915 -100.98002573 23.55657114 -89.74121094 10.81152344 C-89.08507812 10.06128906 -88.42894531 9.31105469 -87.75292969 8.53808594 C-65.263826 -15.55444562 -26.89987616 -18.36071189 0 0 Z " fill="#FCF9F1" transform="translate(525.7412109375,242.1884765625)"/>
<path d="M0 0 C1.062258 -0.00630432 2.12451599 -0.01260864 3.21896362 -0.019104 C4.37405426 -0.01505554 5.5291449 -0.01100708 6.71923828 -0.00683594 C7.90873077 -0.00874939 9.09822327 -0.01066284 10.32376099 -0.01263428 C12.85077118 -0.01399832 15.37778833 -0.0102867 17.90478516 -0.00195312 C21.7389343 0.0086491 25.57260472 -0.00179217 29.40673828 -0.01464844 C31.86507264 -0.01332504 34.3234067 -0.01075893 36.78173828 -0.00683594 C37.91658661 -0.0108844 39.05143494 -0.01493286 40.22067261 -0.019104 C49.82965165 0.03628018 59.4479377 0.75599224 68.35205078 4.63378906 C69.77324219 5.23320313 69.77324219 5.23320313 71.22314453 5.84472656 C75.91328812 8.30892392 79.20668821 11.20924035 82.10205078 15.63378906 C82.83488281 16.72820313 82.83488281 16.72820313 83.58251953 17.84472656 C87.85387891 25.58578257 88.07949259 34.38306066 86.37939453 42.95800781 C84.23789447 49.85059543 80.85336082 55.03910825 74.91455078 59.25878906 C73.92455078 59.75378906 73.92455078 59.75378906 72.91455078 60.25878906 C73.56681641 60.59910156 74.21908203 60.93941406 74.89111328 61.29003906 C82.82531551 65.69012762 87.74398993 70.28679116 90.78955078 78.94628906 C93.36892765 89.01667062 92.80370959 99.01409645 87.91455078 108.25878906 C80.5259057 119.20146595 70.05663026 122.87646734 57.6083374 125.80050659 C54.61267143 126.31014651 51.80210698 126.38592304 48.76318359 126.38818359 C47.54552307 126.39133575 46.32786255 126.39448792 45.07330322 126.3977356 C43.76794617 126.39571136 42.46258911 126.39368713 41.11767578 126.39160156 C39.75958234 126.39227552 38.40148902 126.39324632 37.043396 126.39450073 C34.20567672 126.39597136 31.36798903 126.39384224 28.53027344 126.38916016 C24.88610979 126.38344142 21.24201944 126.38675936 17.59785843 126.39273262 C14.79784588 126.39633684 11.99785089 126.39520067 9.19783783 126.39260483 C7.19856214 126.3916107 5.19928577 126.39465441 3.20001221 126.3977356 C1.99496033 126.39458344 0.78990845 126.39143127 -0.45166016 126.38818359 C-1.51801697 126.387388 -2.58437378 126.38659241 -3.68304443 126.38577271 C-6.08544922 126.25878906 -6.08544922 126.25878906 -7.08544922 125.25878906 C-7.18576067 123.66920996 -7.2162078 122.07517546 -7.21916199 120.48243713 C-7.22342697 119.44901184 -7.22769196 118.41558655 -7.23208618 117.35084534 C-7.231633 116.20744186 -7.23117981 115.06403839 -7.23071289 113.88598633 C-7.2340715 112.68936371 -7.23743011 111.49274109 -7.2408905 110.25985718 C-7.24878621 106.96854545 -7.25206944 103.67729678 -7.25270629 100.38597989 C-7.2536538 97.64231303 -7.25733027 94.89865227 -7.26087838 92.15498775 C-7.26903047 85.68396983 -7.27146194 79.21296583 -7.27075195 72.74194336 C-7.27015098 66.05783449 -7.28070485 59.37380628 -7.29649562 52.68971783 C-7.30955383 46.95892441 -7.31493657 41.2281574 -7.31429654 35.4973492 C-7.31404104 32.07113148 -7.31692065 28.64498539 -7.32747459 25.21878242 C-7.33891748 21.39948473 -7.33441931 17.58029841 -7.32836914 13.76098633 C-7.33398865 12.61960709 -7.33960815 11.47822784 -7.34539795 10.30226135 C-7.34120346 9.26601624 -7.33700897 8.22977112 -7.33268738 7.16212463 C-7.33323215 6.25822274 -7.33377691 5.35432085 -7.33433819 4.42302799 C-6.80277538 -0.19922954 -3.93091074 0.0066794 0 0 Z " fill="#F9F7F0" transform="translate(358.08544921875,730.7412109375)"/>
<path d="M0 0 C1.25361328 -0.02449219 2.50722656 -0.04898438 3.79882812 -0.07421875 C5.59803711 -0.08001953 5.59803711 -0.08001953 7.43359375 -0.0859375 C8.53630615 -0.09415527 9.63901855 -0.10237305 10.77514648 -0.11083984 C13.5625 0.375 13.5625 0.375 15.13000488 2.13871765 C16.51352616 4.29854645 17.4165409 6.22959509 18.26977539 8.64135742 C18.57249359 9.48575378 18.87521179 10.33015015 19.18710327 11.20013428 C19.50821075 12.11764465 19.82931824 13.03515503 20.16015625 13.98046875 C20.50672272 14.95203918 20.85328918 15.92360962 21.21035767 16.92462158 C21.96118659 19.03144685 22.7089312 21.13937328 23.45394897 23.2482605 C25.45265663 28.90488494 27.47411455 34.55338703 29.4921875 40.203125 C29.90826767 41.36996323 30.32434784 42.53680145 30.7530365 43.73899841 C35.17479278 56.12526294 39.70400029 68.47139939 44.25 80.8125 C44.98642324 82.81339013 45.72283308 84.81428519 46.45922852 86.81518555 C46.81224533 87.77370926 47.16526215 88.73223297 47.52897644 89.71980286 C48.21644778 91.58691764 48.90332388 93.45425172 49.58955383 95.32182312 C51.25218328 99.84200397 52.92961055 104.35572114 54.63525391 108.85986328 C55.12733086 110.16855125 55.12733086 110.16855125 55.62934875 111.50367737 C56.24648259 113.14353249 56.86871338 114.78148216 57.49699402 116.417099 C58.83208613 119.97776366 59.5625 122.52544326 59.5625 126.375 C55.61153022 126.42439662 51.6606797 126.46071755 47.70947266 126.48486328 C45.7033864 126.49988107 43.69738676 126.52528981 41.69140625 126.55078125 C40.43457031 126.55722656 39.17773438 126.56367187 37.8828125 126.5703125 C36.72023926 126.58078613 35.55766602 126.59125977 34.35986328 126.60205078 C31.5625 126.375 31.5625 126.375 29.5625 124.375 C28.92763379 122.82508518 28.36100775 121.24671921 27.8359375 119.65625 C27.5265625 118.72425781 27.2171875 117.79226563 26.8984375 116.83203125 C26.42277344 115.36830078 26.42277344 115.36830078 25.9375 113.875 C25.61265625 112.89917969 25.2878125 111.92335938 24.953125 110.91796875 C22.5625 103.65569196 22.5625 103.65569196 22.5625 101.375 C7.3825 101.375 -7.7975 101.375 -23.4375 101.375 C-24.4275 105.005 -25.4175 108.635 -26.4375 112.375 C-27.26956407 114.76538059 -28.13718861 117.14414584 -29.0625 119.5 C-29.48789062 120.59570312 -29.91328125 121.69140625 -30.3515625 122.8203125 C-31.4375 125.375 -31.4375 125.375 -32.4375 126.375 C-34.43714982 126.46258003 -36.4398611 126.48196576 -38.44140625 126.47265625 C-40.26381836 126.46782227 -40.26381836 126.46782227 -42.12304688 126.46289062 C-43.40244141 126.45451172 -44.68183594 126.44613281 -46 126.4375 C-47.28326172 126.43298828 -48.56652344 126.42847656 -49.88867188 126.42382812 C-53.07166022 126.41199545 -56.25455762 126.39551068 -59.4375 126.375 C-58.00846623 119.01470779 -55.70281262 112.25789563 -53.0625 105.25 C-52.07264071 102.59221374 -51.08741587 99.93271184 -50.1015625 97.2734375 C-49.82620667 96.53240784 -49.55085083 95.79137817 -49.26715088 95.02789307 C-45.3756398 84.54127497 -41.57306728 74.02210215 -37.75671387 63.50796509 C-36.00896948 58.69487563 -34.25810268 53.88292455 -32.50732422 49.07093811 C-29.53340565 40.89716174 -26.56002276 32.72325514 -23.60784912 24.54159546 C-22.57486229 21.68046147 -21.53796228 18.82075801 -20.5 15.96142578 C-19.83199014 14.11633321 -19.16981246 12.26913238 -18.5078125 10.421875 C-18.12109375 9.35839844 -17.734375 8.29492188 -17.3359375 7.19921875 C-17.01286621 6.30291748 -16.68979492 5.40661621 -16.35693359 4.4831543 C-13.53218373 -1.9936686 -6.05186181 0.00620386 0 0 Z " fill="#FAF8F0" transform="translate(520.4375,730.625)"/>
<path d="M0 0 C131.67 0 263.34 0 399 0 C399 6.93 399 13.86 399 21 C340.87263462 22.59671898 282.74775718 23.20800395 224.60061938 23.23882335 C216.69430589 23.24309544 208.78811064 23.25558229 200.88183594 23.28125 C125.56128752 23.52040453 125.56128752 23.52040453 94.11091805 20.21889114 C91.77126586 19.97628147 89.43057006 19.74628453 87.08946228 19.51815796 C59.39062493 16.81202843 32.73125955 12.98130106 6.32055664 3.76855469 C4.22677208 3.07510558 2.14677495 2.50148167 0 2 C0 1.34 0 0.68 0 0 Z " fill="#2CA1A9" transform="translate(459,570)"/>
<path d="M0 0 C1.43919044 -0.01210762 1.43919044 -0.01210762 2.90745544 -0.02445984 C4.95285218 -0.03833511 6.99827241 -0.04904174 9.04370117 -0.05688477 C12.11880565 -0.07386108 15.19276668 -0.11768357 18.26757812 -0.16210938 C34.64592202 -0.29194836 51.15176663 0.58426456 63.828125 12.2734375 C74.05802801 23.03476404 78.14393643 36.31641749 78.04492188 51.01831055 C77.53207045 65.58086537 73.00960757 78.89987439 62.3515625 89.09375 C51.92578757 97.28223417 40.52477291 100.56154557 27.47265625 100.46875 C25.89295547 100.46806267 25.89295547 100.46806267 24.28134155 100.46736145 C22.06759506 100.46435239 19.85385044 100.45650665 17.64013672 100.4440918 C14.23657827 100.42572991 10.83329052 100.42358301 7.4296875 100.42382812 C5.27734138 100.41891647 3.12499711 100.41308969 0.97265625 100.40625 C-0.05016449 100.40513718 -1.07298523 100.40402435 -2.12680054 100.40287781 C-3.06512726 100.39649796 -4.00345398 100.3901181 -4.97021484 100.38354492 C-5.79959564 100.37973312 -6.62897644 100.37592133 -7.48348999 100.37199402 C-9.37890625 100.23828125 -9.37890625 100.23828125 -10.37890625 99.23828125 C-10.47954824 96.19962364 -10.51505215 93.18365395 -10.50830078 90.14453125 C-10.5100531 89.1901416 -10.51180542 88.23575195 -10.51361084 87.25244141 C-10.51803112 84.08103648 -10.51509075 80.9096868 -10.51171875 77.73828125 C-10.51239174 75.54492177 -10.51336172 73.35156235 -10.51461792 71.15820312 C-10.51609513 66.5546803 -10.51393959 61.95117683 -10.50927734 57.34765625 C-10.50358005 51.4322353 -10.50685893 45.51685971 -10.51284981 39.60144043 C-10.51645479 35.07030899 -10.51531712 30.5391884 -10.51272202 26.00805664 C-10.51205257 23.8262532 -10.51288177 21.64444879 -10.51520157 19.46264648 C-10.51772707 16.41908135 -10.51388895 13.37559079 -10.50830078 10.33203125 C-10.51032501 9.4208252 -10.51234924 8.50961914 -10.51443481 7.57080078 C-10.48420423 -1.26862123 -8.00406838 0.06364659 0 0 Z " fill="#F9F7F0" transform="translate(607.37890625,606.76171875)"/>
<path d="M0 0 C58.2 0 58.2 0 68.71875 9.5625 C75.64848302 16.89986438 76.49629218 25.04788988 76.41967773 34.7590332 C76.10950174 43.7700946 72.97562282 49.68243635 66.875 56.26953125 C63.86712985 59.04554474 60.24886254 62 56 62 C56.49886719 62.82757812 56.99773437 63.65515625 57.51171875 64.5078125 C62.39046793 72.61322316 67.23561333 80.73860757 72.0625 88.875 C72.64668701 89.8561377 73.23087402 90.83727539 73.83276367 91.84814453 C74.6445105 93.2188208 74.6445105 93.2188208 75.47265625 94.6171875 C75.96000244 95.43815918 76.44734863 96.25913086 76.94946289 97.10498047 C78 99 78 99 78 100 C69.42 100 60.84 100 52 100 C50.95199219 98.10894531 49.90398437 96.21789062 48.82421875 94.26953125 C47.80172098 92.42591028 46.77892639 90.58245429 45.75610352 88.73901367 C45.04876202 87.46379509 44.34172625 86.18840686 43.63500977 84.9128418 C42.61556226 83.07295098 41.59499456 81.23368538 40.57421875 79.39453125 C39.65515747 77.73707886 39.65515747 77.73707886 38.7175293 76.04614258 C37.19053389 73.33792344 35.59959088 70.66598479 34 68 C30.04 67.67 26.08 67.34 22 67 C22 77.89 22 88.78 22 100 C14.74 100 7.48 100 0 100 C0 67 0 34 0 0 Z " fill="#FBF8F1" transform="translate(310,607)"/>
<path d="M0 0 C4.58300125 -0.14505993 9.16541363 -0.23399681 13.75 -0.3125 C15.70292969 -0.3753418 15.70292969 -0.3753418 17.6953125 -0.43945312 C18.94570313 -0.45556641 20.19609375 -0.47167969 21.484375 -0.48828125 C22.63647461 -0.51446533 23.78857422 -0.54064941 24.97558594 -0.56762695 C28 0 28 0 30.24291992 2.22949219 C31.82480954 4.72376527 33.29099131 7.18429224 34.62890625 9.81640625 C35.10158936 10.73647461 35.57427246 11.65654297 36.0612793 12.60449219 C36.55668213 13.58063477 37.05208496 14.55677734 37.5625 15.5625 C42.09762848 24.39150421 46.76244147 33.12958211 51.60961914 41.79125977 C52.04137451 42.56655029 52.47312988 43.34184082 52.91796875 44.140625 C53.29719482 44.81641602 53.6764209 45.49220703 54.06713867 46.18847656 C55 48 55 48 56 51 C56.30067383 50.44876465 56.60134766 49.8975293 56.91113281 49.32958984 C57.33749023 48.54793457 57.76384766 47.7662793 58.203125 46.9609375 C58.68322021 46.08058838 59.16331543 45.20023926 59.65795898 44.29321289 C60.72979592 42.32853464 61.80223585 40.36418525 62.87524414 38.40014648 C65.69520038 33.23645858 68.50538401 28.06796312 71.29296875 22.88671875 C71.82051758 21.90977051 72.34806641 20.93282227 72.89160156 19.92626953 C73.89861565 18.06078071 74.9020555 16.19335665 75.90136719 14.32373047 C76.81663018 12.63198656 77.75246291 10.9511565 78.71166992 9.28393555 C80.01742758 7.05647175 80.01742758 7.05647175 80.9543457 4.83520508 C82.11073919 2.59280235 82.90422055 1.42697966 85 0 C89.79700582 -0.85626146 94.46001429 -0.65751804 99.3125 -0.4375 C101.28186523 -0.39012695 101.28186523 -0.39012695 103.29101562 -0.34179688 C106.52961009 -0.25935992 109.7636694 -0.14432328 113 0 C113 4.08032185 112.6580788 5.09682681 110.71875 8.47265625 C110.21472656 9.35832275 109.71070313 10.24398926 109.19140625 11.15649414 C108.35416016 12.59496704 108.35416016 12.59496704 107.5 14.0625 C106.92121094 15.07111084 106.34242188 16.07972168 105.74609375 17.11889648 C99.26384492 28.37079363 92.62043291 39.52881239 85.97216797 50.68310547 C84.01619639 53.97276008 82.07049099 57.26824275 80.12890625 60.56640625 C79.52626953 61.58984131 78.92363281 62.61327637 78.30273438 63.66772461 C77.16630008 65.59892952 76.03083969 67.53070796 74.89648438 69.46313477 C74.39568359 70.31319092 73.89488281 71.16324707 73.37890625 72.0390625 C72.9413501 72.78365723 72.50379395 73.52825195 72.05297852 74.29541016 C71 76 71 76 70 77 C69.8774645 78.53382679 69.82222062 80.07310519 69.79467773 81.61157227 C69.77473251 82.59251358 69.75478729 83.5734549 69.73423767 84.5841217 C69.71752518 85.6507756 69.70081268 86.7174295 69.68359375 87.81640625 C69.6524221 89.44569313 69.6524221 89.44569313 69.62062073 91.1078949 C69.55500558 94.59269627 69.49618489 98.07757568 69.4375 101.5625 C69.39432615 103.91862801 69.35071224 106.27474799 69.30664062 108.63085938 C69.19931208 114.42048937 69.09756835 120.21019775 69 126 C64.68751391 126.02886537 60.37505238 126.04675255 56.0625 126.0625 C54.83080078 126.07087891 53.59910156 126.07925781 52.33007812 126.08789062 C51.16025391 126.09111328 49.99042969 126.09433594 48.78515625 126.09765625 C47.15912476 126.10551147 47.15912476 126.10551147 45.50024414 126.11352539 C43 126 43 126 42 125 C41.90888454 123.58464885 41.88536406 122.16485577 41.88989258 120.74658203 C41.88931351 119.84118683 41.88873444 118.93579163 41.88813782 118.00296021 C41.89024765 117.01456146 41.89235748 116.02616272 41.89453125 115.0078125 C41.88106066 112.9192606 41.8660349 110.83071826 41.84960938 108.7421875 C41.82689078 105.44628117 41.8123993 102.15144183 41.82495117 98.85546875 C42.10182083 81.93641041 42.10182083 81.93641041 35 67 C33.92478281 65.11325735 32.87350948 63.21271358 31.84375 61.30078125 C25.86699129 50.58091671 19.82159206 39.90699903 13.625 29.3125 C13.04355225 28.31613525 12.46210449 27.31977051 11.86303711 26.29321289 C9.36816072 22.0234868 6.86284513 17.76184538 4.30859375 13.52734375 C3.72827393 12.55124146 3.72827393 12.55124146 3.13623047 11.55541992 C2.15269582 9.90165941 1.15702619 8.25513153 0.16015625 6.609375 C-1.1459003 3.67184713 -0.91685187 2.94174563 0 0 Z " fill="#FAF8F1" transform="translate(569,731)"/>
<path d="M0 0 C2.43017578 -0.34057617 2.43017578 -0.34057617 5.4453125 -0.29296875 C6.52167969 -0.28330078 7.59804688 -0.27363281 8.70703125 -0.26367188 C10.39892578 -0.2259668 10.39892578 -0.2259668 12.125 -0.1875 C13.26066406 -0.17396484 14.39632812 -0.16042969 15.56640625 -0.14648438 C18.37807387 -0.11104319 21.18880417 -0.06163517 24 0 C26.82921452 6.14541978 29.31043711 12.34788907 31.58203125 18.71875 C31.9134613 19.63912048 32.24489136 20.55949097 32.58636475 21.50775146 C33.66479286 24.50408124 34.73871016 27.50200524 35.8125 30.5 C37.32650378 34.71412553 38.84273037 38.92744928 40.359375 43.140625 C40.74287613 44.20682068 41.12637726 45.27301636 41.52149963 46.371521 C44.13527401 53.62870477 46.7825436 60.87291733 49.453125 68.109375 C49.80312057 69.0590918 50.15311615 70.00880859 50.51371765 70.98730469 C51.85904758 74.63704101 53.20452257 78.28668581 54.55947876 81.93286133 C55.48258818 84.41727713 56.40000522 86.90372859 57.31640625 89.390625 C57.59055359 90.12279236 57.86470093 90.85495972 58.14715576 91.60931396 C59.22605856 94.54982525 60 96.8404962 60 100 C52.08 100 44.16 100 36 100 C35.01 97.07125 34.02 94.1425 33 91.125 C32.68675781 90.20348145 32.37351562 89.28196289 32.05078125 88.33251953 C31.80714844 87.60661621 31.56351563 86.88071289 31.3125 86.1328125 C31.06113281 85.38918457 30.80976562 84.64555664 30.55078125 83.87939453 C30 82 30 82 30 80 C18.12 80.33 6.24 80.66 -6 81 C-8.31 87.27 -10.62 93.54 -13 100 C-20.59 100 -28.18 100 -36 100 C-33.75023614 89.87606265 -33.75023614 89.87606265 -32.01977539 85.23779297 C-31.63464783 84.19637146 -31.24952026 83.15494995 -30.85272217 82.08197021 C-30.43855042 80.97984192 -30.02437866 79.87771362 -29.59765625 78.7421875 C-29.16358459 77.57206116 -28.72951294 76.40193481 -28.2822876 75.1963501 C-27.35740238 72.7046568 -26.43059421 70.21379443 -25.50015259 67.72418213 C-23.3355179 61.93188826 -21.18650107 56.13379855 -19.03754234 50.33567429 C-18.56478211 49.06030626 -18.09180177 47.7850198 -17.61860085 46.50981522 C-13.29195662 34.84853128 -9.08830284 23.14841953 -5.02172852 11.39404297 C-4.63944092 10.29721191 -4.25715332 9.20038086 -3.86328125 8.0703125 C-3.54657471 7.15008301 -3.22986816 6.22985352 -2.90356445 5.28173828 C-2 3 -2 3 0 0 Z " fill="#FBF8F1" transform="translate(526,607)"/>
<path d="M0 0 C1.00023193 0.00523682 2.00046387 0.01047363 3.03100586 0.01586914 C4.1105957 0.0190918 5.19018555 0.02231445 6.30249023 0.02563477 C8.00695312 0.03820312 8.00695312 0.03820312 9.74584961 0.05102539 C11.45611328 0.05779297 11.45611328 0.05779297 13.20092773 0.06469727 C16.02845312 0.07652792 18.85587601 0.09301129 21.68334961 0.11352539 C26.82052672 11.72423988 30.92203786 23.72530318 35.18334961 35.67602539 C36.78236617 40.14829405 38.3842597 44.61952439 39.98803711 49.09008789 C40.3852597 50.19744797 40.7824823 51.30480804 41.19174194 52.44572449 C43.66982296 59.33816339 46.18731632 66.2144107 48.75366211 73.07446289 C49.06128479 73.897061 49.36890747 74.71965912 49.68585205 75.56718445 C51.10729146 79.36185045 52.53652278 83.15341538 53.97436523 86.94189453 C54.4737735 88.26861375 54.97312614 89.5953539 55.47241211 90.92211914 C55.90247559 92.05447998 56.33253906 93.18684082 56.77563477 94.35351562 C57.68334961 97.11352539 57.68334961 97.11352539 57.68334961 100.11352539 C49.76334961 100.11352539 41.84334961 100.11352539 33.68334961 100.11352539 C31.37334961 93.84352539 29.06334961 87.57352539 26.68334961 81.11352539 C15.13334961 81.11352539 3.58334961 81.11352539 -8.31665039 81.11352539 C-10.62665039 87.38352539 -12.93665039 93.65352539 -15.31665039 100.11352539 C-22.90665039 100.11352539 -30.49665039 100.11352539 -38.31665039 100.11352539 C-36.36789486 92.96808846 -34.37108838 86.11607643 -31.83227539 79.19946289 C-31.49947571 78.28183167 -31.16667603 77.36420044 -30.8237915 76.41876221 C-29.74238141 73.44043092 -28.65470125 70.46443637 -27.56665039 67.48852539 C-26.81177457 65.41491085 -26.05722149 63.3411788 -25.30297852 61.26733398 C-23.75223343 57.00611226 -22.1986431 52.74594331 -20.64282227 48.48657227 C-18.74682082 43.29503606 -16.85760864 38.10106725 -14.97137451 32.90597534 C-13.58472726 29.08795899 -12.19542909 25.27091166 -10.80529785 21.4541626 C-10.14707012 19.6461291 -9.48959729 17.83782059 -8.83288574 16.02923584 C-7.92397511 13.52767301 -7.01146979 11.02745242 -6.09790039 8.52758789 C-5.69441376 7.4138681 -5.69441376 7.4138681 -5.28277588 6.27764893 C-3.03529529 0.14874194 -3.03529529 0.14874194 0 0 Z " fill="#FBF8F1" transform="translate(240.316650390625,606.886474609375)"/>
<path d="M0 0 C1.00023193 0.00523682 2.00046387 0.01047363 3.03100586 0.01586914 C4.1105957 0.0190918 5.19018555 0.02231445 6.30249023 0.02563477 C8.00695312 0.03820312 8.00695312 0.03820312 9.74584961 0.05102539 C11.45611328 0.05779297 11.45611328 0.05779297 13.20092773 0.06469727 C16.02845312 0.07652792 18.85587601 0.09301129 21.68334961 0.11352539 C27.59814532 15.02978649 33.09434427 30.08981404 38.55834961 45.17602539 C39.41363818 47.53221059 40.26910617 49.88833068 41.12475586 52.24438477 C43.22836217 58.03881106 45.32621688 63.83530095 47.42248535 69.63238525 C48.71807733 73.20940571 50.01925496 76.78436187 51.32104492 80.35913086 C52.1528507 82.65092398 52.98456032 84.942752 53.81616211 87.23461914 C54.40142166 88.83624657 54.40142166 88.83624657 54.99850464 90.4702301 C55.3522818 91.44749557 55.70605896 92.42476105 56.07055664 93.43164062 C56.38316437 94.29071518 56.69577209 95.14978973 57.01785278 96.03489685 C57.68334961 98.11352539 57.68334961 98.11352539 57.68334961 100.11352539 C49.76334961 100.11352539 41.84334961 100.11352539 33.68334961 100.11352539 C31.1766536 93.84678536 28.81772436 87.51664963 26.68334961 81.11352539 C15.13334961 81.11352539 3.58334961 81.11352539 -8.31665039 81.11352539 C-10.24950724 86.99123084 -10.24950724 86.99123084 -12.17578125 92.87109375 C-12.4169165 93.59949463 -12.65805176 94.32789551 -12.90649414 95.07836914 C-13.15262451 95.82723389 -13.39875488 96.57609863 -13.65234375 97.34765625 C-14.31665039 99.11352539 -14.31665039 99.11352539 -15.31665039 100.11352539 C-17.02437397 100.20066371 -18.73563688 100.22052546 -20.44555664 100.21118164 C-21.99726562 100.20634766 -21.99726562 100.20634766 -23.58032227 100.20141602 C-24.66893555 100.19303711 -25.75754883 100.1846582 -26.87915039 100.17602539 C-28.51787109 100.16925781 -28.51787109 100.16925781 -30.18969727 100.16235352 C-32.89873798 100.15052364 -35.60765861 100.1332026 -38.31665039 100.11352539 C-36.32007412 92.29103272 -33.86160975 84.74049825 -31.07055664 77.16821289 C-30.6628302 76.05077698 -30.25510376 74.93334106 -29.83502197 73.78204346 C-28.52062263 70.18264307 -27.20002465 66.58555412 -25.87915039 62.98852539 C-24.97403916 60.51455333 -24.06933717 58.04043151 -23.16503906 55.56616211 C-21.37684581 50.67440075 -19.58659994 45.78339765 -17.79516602 40.89282227 C-15.63743657 34.99739791 -13.49521086 29.09653544 -11.36352539 23.19165039 C-11.07827499 22.40239166 -10.7930246 21.61313293 -10.49913025 20.79995728 C-8.93667903 16.47684696 -8.93667903 16.47684696 -7.37893677 12.15203857 C-6.70048836 10.26591473 -6.01845794 8.38108044 -5.33618164 6.49633789 C-4.78087769 4.95550537 -4.78087769 4.95550537 -4.21435547 3.38354492 C-2.93313602 0.14373572 -2.93313602 0.14373572 0 0 Z " fill="#FBF8F1" transform="translate(774.316650390625,606.886474609375)"/>
<path d="M0 0 C6.67457244 4.8983639 12.20273672 10.72237974 15.42578125 18.421875 C15.42578125 19.081875 15.42578125 19.741875 15.42578125 20.421875 C12.49432325 21.62469597 9.55480883 22.80641773 6.61328125 23.984375 C5.77990234 24.32662109 4.94652344 24.66886719 4.08789062 25.02148438 C3.28544922 25.34052734 2.48300781 25.65957031 1.65625 25.98828125 C0.54866333 26.43602905 0.54866333 26.43602905 -0.58129883 26.89282227 C-2.57421875 27.421875 -2.57421875 27.421875 -5.57421875 26.421875 C-6.70599613 25.17243759 -7.7841814 23.87365162 -8.82421875 22.546875 C-13.00583747 17.70591391 -16.31645344 15.75140568 -22.625 15.11328125 C-29.46116517 14.85308119 -35.0219218 15.19155352 -40.57421875 19.421875 C-47.26704421 25.81048112 -49.72091811 33.22704384 -50.04882812 42.35205078 C-50.14734435 52.08052849 -49.20969061 60.75936967 -43.32421875 68.859375 C-36.69797037 75.03383372 -30.96893243 76.09478249 -21.91796875 75.8046875 C-15.53238502 75.07362768 -11.69256955 72.76229689 -7.38671875 68.109375 C-6.45859375 67.2225 -5.53046875 66.335625 -4.57421875 65.421875 C-0.04673617 65.64506076 3.78811254 67.92996182 7.73828125 69.984375 C8.38345703 70.31373047 9.02863281 70.64308594 9.69335938 70.98242188 C11.27363353 71.79011755 12.8501023 72.60525113 14.42578125 73.421875 C13.25109327 79.7680552 8.788264 84.56817995 3.83203125 88.45703125 C-9.37080445 97.19092959 -23.19885559 99.22300711 -38.69921875 96.234375 C-50.88858442 93.34812652 -60.15338487 87.72739596 -67.32421875 77.359375 C-75.68448996 63.16413188 -77.1226597 45.41343022 -73.87890625 29.33984375 C-70.68865357 18.03991516 -64.58416422 7.47243311 -54.26171875 1.5078125 C-37.9575829 -7.05490064 -16.53476664 -10.13663994 0 0 Z " fill="#FAF8F1" transform="translate(470.57421875,611.578125)"/>
<path d="M0 0 C28.05 0 56.1 0 85 0 C84.3522744 9.71588406 83.60379953 19.28902211 82.4375 28.9375 C82.29892578 30.10990234 82.16035156 31.28230469 82.01757812 32.49023438 C81.68176883 35.32724395 81.34256123 38.16379923 81 41 C75.23230544 41.14808147 69.46449558 41.28999146 63.6965332 41.42724609 C61.75313663 41.47423451 59.80977347 41.52263631 57.86645508 41.57275391 C38.90109884 42.05993737 19.98391317 42 1 42 C1 105.03 1 168.06 1 233 C0.67 233 0.34 233 0 233 C0 156.11 0 79.22 0 0 Z " fill="#014861" transform="translate(167,510)"/>
<path d="M0 0 C7.26 0 14.52 0 22 0 C23.93224465 1.93224465 23.12018438 4.83610389 23.12442017 7.40708923 C23.12082489 8.32921707 23.11722961 9.25134491 23.11352539 10.20141602 C23.11367142 11.16716553 23.11381744 12.13291504 23.1139679 13.12792969 C23.11326834 16.33661099 23.10547397 19.54523503 23.09765625 22.75390625 C23.09579222 24.97208118 23.09436825 27.19025652 23.09336853 29.40843201 C23.08954216 35.25940071 23.07971086 41.11034477 23.06866455 46.96130371 C23.05845299 52.92667304 23.05387146 58.89204633 23.04882812 64.85742188 C23.03808869 76.57162718 23.02049093 88.28580769 23 100 C15.41 100 7.82 100 0 100 C0 67 0 34 0 0 Z " fill="#F9F7F0" transform="translate(701,607)"/>
<path d="M0 0 C23.11111111 0 23.11111111 0 32.3125 6.25 C39.40117689 13.50352984 40.29105184 21.6040999 40.3190918 31.35473633 C40.19001829 39.17825608 38.42235222 46.03875323 33.75 52.4375 C23.7885439 61.71976591 13.83876122 60 0 60 C0 40.2 0 20.4 0 0 Z " fill="#013852" transform="translate(621,627)"/>
<path d="M0 0 C19.14 0 38.28 0 58 0 C58 14.52 58 29.04 58 44 C51.73 44 45.46 44 39 44 C38.97421875 42.09734375 38.9484375 40.1946875 38.921875 38.234375 C38.86560098 35.73956017 38.8082535 33.24476939 38.75 30.75 C38.73582031 29.49574219 38.72164063 28.24148438 38.70703125 26.94921875 C38.67480469 25.74394531 38.64257812 24.53867187 38.609375 23.296875 C38.58842773 22.18666992 38.56748047 21.07646484 38.54589844 19.93261719 C37.88596966 16.3874184 36.81507744 15.18623627 34 13 C31.74939587 12.48397424 31.74939587 12.48397424 29.4375 12.6875 C28.67308594 12.71199219 27.90867187 12.73648437 27.12109375 12.76171875 C24.81373219 12.94634302 24.81373219 12.94634302 22 14 C19.15738316 19.66589615 19.55029038 26.17410279 19.375 32.375 C19.33632813 33.49261719 19.29765625 34.61023438 19.2578125 35.76171875 C19.16393784 38.50755263 19.08089719 41.25375315 19 44 C12.73 44 6.46 44 0 44 C0 29.48 0 14.96 0 0 Z " fill="#FCF9F1" transform="translate(288,274)"/>
<path d="M0 0 C1.75280273 -0.01836914 1.75280273 -0.01836914 3.54101562 -0.03710938 C19.71398636 -0.06447481 19.71398636 -0.06447481 24.8125 4.5625 C28.54953442 8.29953442 29.30057365 9.77259434 29.8125 15.0625 C29.66584752 19.44577965 28.43081887 21.89484924 25.4375 25.1875 C17.91022181 30.32989797 10.17442781 29.64764621 1.4375 29.4375 C-0.01950669 29.41740336 -1.47654015 29.39915818 -2.93359375 29.3828125 C-6.4771255 29.33906901 -10.01963877 29.27021767 -13.5625 29.1875 C-13.58715881 25.21819011 -13.60534023 21.24890966 -13.61743164 17.27954102 C-13.62247057 15.92829614 -13.62930177 14.57705674 -13.63793945 13.22583008 C-13.65002419 11.28729566 -13.65519828 9.348722 -13.66015625 7.41015625 C-13.66539307 6.24234619 -13.67062988 5.07453613 -13.67602539 3.87133789 C-13.40928683 -2.43459122 -4.86440005 0.00262232 0 0 Z " fill="#013B54" transform="translate(392.5625,803.8125)"/>
<path d="M0 0 C2.98095703 -0.34057617 2.98095703 -0.34057617 6.7578125 -0.29296875 C7.97098145 -0.28547607 9.18415039 -0.2779834 10.43408203 -0.27026367 C11.98208496 -0.24295166 13.53008789 -0.21563965 15.125 -0.1875 C20.03375 -0.125625 24.9425 -0.06375 30 0 C30 10.23 30 20.46 30 31 C25.05 31 20.1 31 15 31 C14.505 27.04 14.505 27.04 14 23 C10.37 23 6.74 23 3 23 C2.67 25.64 2.34 28.28 2 31 C-4.6 31 -11.2 31 -18 31 C-18 27.04 -18 23.08 -18 19 C-16.659375 19.144375 -15.31875 19.28875 -13.9375 19.4375 C-11.37825411 19.34724962 -11.37825411 19.34724962 -9 18 C-6.66388502 14.30333866 -5.01994481 10.58986336 -3.41015625 6.5390625 C-2 3 -2 3 0 0 Z " fill="#2DA6AD" transform="translate(682,519)"/>
<path d="M0 0 C3.95092059 -0.07409401 7.90157294 -0.12857406 11.85302734 -0.16479492 C13.85919374 -0.18732251 15.86516526 -0.2254357 17.87109375 -0.26367188 C19.12792969 -0.27333984 20.38476562 -0.28300781 21.6796875 -0.29296875 C22.84226074 -0.3086792 24.00483398 -0.32438965 25.20263672 -0.34057617 C26.1257666 -0.22818604 27.04889648 -0.1157959 28 0 C30.37851403 3.56777104 30.52556422 5.55140901 30.46484375 9.734375 C29.79086207 13.01932774 28.08826655 14.34228093 25.41015625 16.22265625 C23.21173191 18.67742327 23.21173191 18.67742327 23 26 C8.48 26 -6.04 26 -21 26 C-21 23.03 -21 20.06 -21 17 C-20.154375 17.1134375 -19.30875 17.226875 -18.4375 17.34375 C-14.4463844 17.52516435 -11.76258631 17.41150615 -8 16 C-4.08083939 11.47431889 -2.06713075 5.53941079 0 0 Z " fill="#2CA4AB" transform="translate(592,525)"/>
<path d="M0 0 C4.35454354 -0.08114056 8.7075656 -0.14057664 13.0625 -0.1875 C14.29162109 -0.21263672 15.52074219 -0.23777344 16.78710938 -0.26367188 C23.27375122 -0.3161245 28.35098759 -0.35285969 34 3 C38.8896427 8.27566712 38.8896427 8.27566712 39.125 11.953125 C38.9333161 15.47531662 38.74015495 18.05975066 36.51171875 20.890625 C31.37446585 25.42284812 27.51718842 26.12979806 20.703125 26.09765625 C19.49785156 26.09443359 18.29257812 26.09121094 17.05078125 26.08789062 C15.79652344 26.07951172 14.54226563 26.07113281 13.25 26.0625 C11.98027344 26.05798828 10.71054687 26.05347656 9.40234375 26.04882812 C6.26820905 26.03704566 3.13409858 26.01911036 0 26 C0 17.42 0 8.84 0 0 Z " fill="#013650" transform="translate(379,755)"/>
<path d="M0 0 C3.50625 -0.0825 7.0125 -0.165 10.625 -0.25 C11.71893066 -0.28641602 12.81286133 -0.32283203 13.93994141 -0.36035156 C19.96849069 -0.42892064 23.44755293 -0.07285378 28 4 C30.79238671 7.96338759 31.53767436 11.1296515 30.71875 15.96875 C29.225719 20.18818545 26.01021892 23.99489054 22 26 C20.3325394 26.08426094 18.66174813 26.10725143 16.9921875 26.09765625 C16.1038623 26.09515869 15.21553711 26.09266113 14.30029297 26.09008789 C13.16994629 26.08098389 12.03959961 26.07187988 10.875 26.0625 C5.491875 26.0315625 5.491875 26.0315625 0 26 C0 17.42 0 8.84 0 0 Z " fill="#053952" transform="translate(332,627)"/>
<path d="M0 0 C0.66 0 1.32 0 2 0 C3.67828807 4.96018001 5.35041195 9.92238137 7.01708984 14.88647461 C7.58379809 16.5716011 8.15212726 18.25618344 8.72216797 19.94018555 C9.54571249 22.37404087 10.36322409 24.80985517 11.1796875 27.24609375 C11.43185028 27.98709824 11.68401306 28.72810272 11.94381714 29.49156189 C13.66936129 34.66656585 14.80268664 39.61208987 16 45 C6.1 45 -3.8 45 -14 45 C-10.55218405 31.20873619 -10.55218405 31.20873619 -8.30078125 24.609375 C-8.0608696 23.89388489 -7.82095795 23.17839478 -7.57377625 22.44122314 C-6.82432307 20.20933797 -6.06856513 17.9796528 -5.3125 15.75 C-4.79579972 14.21498649 -4.27952085 12.67983106 -3.76367188 11.14453125 C-2.51395604 7.42803714 -1.25859079 3.71349751 0 0 Z " fill="#023A54" transform="translate(519,764)"/>
<path d="M0 0 C0.86625 -0.00773437 1.7325 -0.01546875 2.625 -0.0234375 C5.56793365 0.47027834 6.2606853 0.96471835 8 3.375 C8.35644531 6.45361328 8.35644531 6.45361328 8.328125 10.1953125 C8.32625183 10.85457733 8.32437866 11.51384216 8.32244873 12.19308472 C8.31573708 13.58336461 8.30183995 14.97362591 8.28125 16.36376953 C8.2500117 18.49920054 8.24027048 20.63389411 8.234375 22.76953125 C8.16348535 33.21151465 8.16348535 33.21151465 7 34.375 C4.85692104 34.50037741 2.70921114 34.55074364 0.5625 34.5625 C-0.61183594 34.57667969 -1.78617187 34.59085937 -2.99609375 34.60546875 C-6 34.375 -6 34.375 -8 32.375 C-8.39800538 28.25732482 -8.32904717 24.13411338 -8.31567383 19.9987793 C-8.31251696 17.94851386 -8.3359576 15.89969595 -8.36132812 13.84960938 C-8.36197266 12.55990234 -8.36261719 11.27019531 -8.36328125 9.94140625 C-8.36626221 8.75490479 -8.36924316 7.56840332 -8.37231445 6.34594727 C-8 3.375 -8 3.375 -6.62573242 1.48950195 C-4.36610115 -0.05956198 -2.71831561 -0.02427068 0 0 Z " fill="#033D56" transform="translate(330,395.625)"/>
<path d="M0 0 C2 1 2 1 3.14501953 3.89575195 C3.56582615 5.17392161 3.97781366 6.45501518 4.3828125 7.73828125 C4.60194305 8.415457 4.82107361 9.09263275 5.04684448 9.79032898 C5.509351 11.22582113 5.96807982 12.66253503 6.42333984 14.1003418 C7.11982316 16.29617871 7.83041612 18.48706651 8.54296875 20.67773438 C8.99043812 22.07264275 9.4370798 23.46781696 9.8828125 24.86328125 C10.09527618 25.51758621 10.30773987 26.17189117 10.52664185 26.84602356 C11.55193791 30.11165999 12 32.52684848 12 36 C4.41 36 -3.18 36 -11 36 C-9.7702137 30.46596164 -8.6239721 25.5023175 -6.8359375 20.21484375 C-6.43632812 19.02568359 -6.03671875 17.83652344 -5.625 16.61132812 C-5.2125 15.39896484 -4.8 14.18660156 -4.375 12.9375 C-3.95476562 11.69033203 -3.53453125 10.44316406 -3.1015625 9.15820312 C-2.07181153 6.10405535 -1.03786449 3.05139815 0 0 Z " fill="#013A54" transform="translate(249,633)"/>
<path d="M0 0 C2 1 2 1 3.14501953 3.89575195 C3.56582615 5.17392161 3.97781366 6.45501518 4.3828125 7.73828125 C4.60194305 8.415457 4.82107361 9.09263275 5.04684448 9.79032898 C5.509351 11.22582113 5.96807982 12.66253503 6.42333984 14.1003418 C7.11982316 16.29617871 7.83041612 18.48706651 8.54296875 20.67773438 C8.99043812 22.07264275 9.4370798 23.46781696 9.8828125 24.86328125 C10.09527618 25.51758621 10.30773987 26.17189117 10.52664185 26.84602356 C11.55193791 30.11165999 12 32.52684848 12 36 C4.41 36 -3.18 36 -11 36 C-8.99728002 27.58478546 -6.60612198 19.43384738 -3.8125 11.25 C-3.44447266 10.15945313 -3.07644531 9.06890625 -2.69726562 7.9453125 C-1.80234902 5.29542958 -0.90322421 2.64706023 0 0 Z " fill="#013D57" transform="translate(537,633)"/>
<path d="M0 0 C2.60040721 2.60040721 3.29931849 5.4484935 4.3828125 8.87109375 C4.60194305 9.54922623 4.82107361 10.2273587 5.04684448 10.92604065 C5.50863241 12.35998276 5.96738975 13.79490386 6.42333984 15.23071289 C7.12195569 17.42792537 7.8316926 19.62131064 8.54296875 21.81445312 C8.99025155 23.20811905 9.43688787 24.60199266 9.8828125 25.99609375 C10.09527618 26.65242294 10.30773987 27.30875214 10.52664185 27.98497009 C11.41046167 30.78561637 12 33.04149569 12 36 C4.41 36 -3.18 36 -11 36 C-9.7702137 30.46596164 -8.6239721 25.5023175 -6.8359375 20.21484375 C-6.43632813 19.02568359 -6.03671875 17.83652344 -5.625 16.61132812 C-5.2125 15.39896484 -4.8 14.18660156 -4.375 12.9375 C-3.95476563 11.69033203 -3.53453125 10.44316406 -3.1015625 9.15820312 C-2.07181153 6.10405535 -1.03786449 3.05139815 0 0 Z " fill="#043851" transform="translate(783,633)"/>
<path d="M0 0 C131.01 0 262.02 0 397 0 C397 0.33 397 0.66 397 1 C396.18475459 1.00173625 395.36950919 1.0034725 394.52955937 1.00526136 C346.24699441 1.10821546 297.9644433 1.21631192 249.68190499 1.33111694 C243.8888482 1.34488706 238.09579132 1.35861408 232.30273438 1.37231445 C230.57274228 1.37640691 230.57274228 1.37640691 228.80780086 1.38058204 C210.11578069 1.42469686 191.42375446 1.46531678 172.7317237 1.50465261 C153.56216474 1.54507088 134.39261704 1.58922749 115.22307467 1.63687855 C103.38766294 1.6661801 91.55225208 1.6925408 79.71682569 1.71517897 C71.60869613 1.73096667 63.50058036 1.75037466 55.3924661 1.77266841 C50.70955507 1.78543624 46.02665467 1.79657065 41.34373093 1.80341911 C37.0603905 1.80971832 32.77708672 1.82054156 28.4937664 1.8350333 C26.94054664 1.83947712 25.38732098 1.8422302 23.83409515 1.84316199 C21.72951958 1.84466667 19.62505071 1.85222106 17.52049637 1.8613348 C16.34943887 1.86399284 15.17838137 1.86665089 13.97183728 1.86938947 C11.10574289 1.89121649 11.10574289 1.89121649 8.82684398 2.56726032 C5.69852626 3.30829087 2.97732968 1.97335778 0 1 C0 0.67 0 0.34 0 0 Z " fill="#38C3C3" transform="translate(460,571)"/>
<path d="M0 0 C19.14 0 38.28 0 58 0 C58 0.33 58 0.66 58 1 C39.52 1.33 21.04 1.66 2 2 C2 15.2 2 28.4 2 42 C7.28 42.33 12.56 42.66 18 43 C18 43.33 18 43.66 18 44 C12.06 44 6.12 44 0 44 C0 29.48 0 14.96 0 0 Z " fill="#CCD8D8" transform="translate(288,274)"/>
<path d="M0 0 C1.20205078 -0.01224609 2.40410156 -0.02449219 3.64257812 -0.03710938 C4.79822266 -0.03904297 5.95386719 -0.04097656 7.14453125 -0.04296875 C8.73744995 -0.04913208 8.73744995 -0.04913208 10.36254883 -0.05541992 C13.1875 0.1875 13.1875 0.1875 17.1875 2.1875 C7.6175 2.1875 -1.9525 2.1875 -11.8125 2.1875 C-11.8125 10.7675 -11.8125 19.3475 -11.8125 28.1875 C-3.2325 28.1875 5.3475 28.1875 14.1875 28.1875 C14.1875 28.5175 14.1875 28.8475 14.1875 29.1875 C4.9475 29.1875 -4.2925 29.1875 -13.8125 29.1875 C-13.833125 24.588125 -13.85375 19.98875 -13.875 15.25 C-13.884104 13.79730713 -13.89320801 12.34461426 -13.90258789 10.84790039 C-13.90508545 9.71344482 -13.90758301 8.57898926 -13.91015625 7.41015625 C-13.91539307 6.24234619 -13.92062988 5.07453613 -13.92602539 3.87133789 C-13.65763556 -2.4736285 -4.88469899 0.0025941 0 0 Z " fill="#011C36" transform="translate(392.8125,803.8125)"/>
<path d="M0 0 C0.33 0 0.66 0 1 0 C1 13.53 1 27.06 1 41 C-5.27 41 -11.54 41 -18 41 C-18.33 31.76 -18.66 22.52 -19 13 C-18.34 13 -17.68 13 -17 13 C-15.69524382 15.60951236 -15.88698428 17.52701285 -15.90234375 20.4453125 C-15.90556641 21.52167969 -15.90878906 22.59804688 -15.91210938 23.70703125 C-15.92048828 24.83496094 -15.92886719 25.96289062 -15.9375 27.125 C-15.94201172 28.26066406 -15.94652344 29.39632813 -15.95117188 30.56640625 C-15.96298372 33.37762647 -15.98091959 36.18881972 -16 39 C-10.72 39 -5.44 39 0 39 C0 26.13 0 13.26 0 0 Z " fill="#E2EAEB" transform="translate(345,277)"/>
<path d="M0 0 C1.02826931 3.13667908 0.99386675 4.83184742 -0.21484375 7.890625 C-0.46097412 8.53032227 -0.70710449 9.17001953 -0.96069336 9.82910156 C-1.44421265 11.02744629 -1.44421265 11.02744629 -1.9375 12.25 C-2.948125 14.8075 -3.95875 17.365 -5 20 C3.58 20 12.16 20 21 20 C21.33 19.34 21.66 18.68 22 18 C22.33 19.32 22.66 20.64 23 22 C13.1 22 3.2 22 -7 22 C-5.04532152 14.18128606 -3.17166331 7.27711581 0 0 Z " fill="#0F2C44" transform="translate(512,787)"/>
<path d="M0 0 C3.01598607 1.50799304 3.13739043 3.67733534 4.1875 6.8125 C4.55230469 7.87082031 4.91710937 8.92914062 5.29296875 10.01953125 C5.98036862 12.91724451 6.03931179 14.26601422 5 17 C4.67 15.02 4.34 13.04 4 11 C3.34 11 2.68 11 2 11 C2 11.99 2 12.98 2 14 C1.01 14.33 0.02 14.66 -1 15 C-1.33 15.66 -1.66 16.32 -2 17 C-2.66 17 -3.32 17 -4 17 C-3.67 17.99 -3.34 18.98 -3 20 C-3.66 20 -4.32 20 -5 20 C-5.33 20.66 -5.66 21.32 -6 22 C-5.40421223 16.73378394 -4.18691204 12.05591981 -2.4375 7.0625 C-2.20353516 6.37865234 -1.96957031 5.69480469 -1.72851562 4.99023438 C-1.15788171 3.32491499 -0.57972902 1.66217507 0 0 Z " fill="#053650" transform="translate(537,633)"/>
<path d="M0 0 C2.31 0 4.62 0 7 0 C7 3.96 7 7.92 7 12 C4.69 12 2.38 12 0 12 C0 8.04 0 4.08 0 0 Z " fill="#29A3A9" transform="translate(770,537)"/>
<path d="M0 0 C2 1 2 1 3.0703125 3.58203125 C3.41835938 4.64808594 3.76640625 5.71414063 4.125 6.8125 C4.47820312 7.87082031 4.83140625 8.92914062 5.1953125 10.01953125 C6 13 6 13 6 17 C-1.59 17 -9.18 17 -17 17 C-16 11 -16 11 -14 9 C-14.33 10.98 -14.66 12.96 -15 15 C-8.73 15 -2.46 15 4 15 C3.34 12.89625 2.68 10.7925 2 8.625 C0 2.25 0 2.25 0 0 Z " fill="#0C2943" transform="translate(255,652)"/>
<path d="M0 0 C2 1 2 1 2.921875 3.3984375 C3.19515625 4.38070312 3.4684375 5.36296875 3.75 6.375 C4.17539063 7.84066406 4.17539063 7.84066406 4.609375 9.3359375 C5 12 5 12 3 15 C2.01 14.67 1.02 14.34 0 14 C-0.33 13.34 -0.66 12.68 -1 12 C-1.66 12.66 -2.32 13.32 -3 14 C-4.25955231 10.22134307 -3.48087189 8.96588214 -2.0625 5.3125 C-1.68222656 4.31863281 -1.30195313 3.32476563 -0.91015625 2.30078125 C-0.60980469 1.54152344 -0.30945313 0.78226563 0 0 Z " fill="#0B3C55" transform="translate(249,633)"/>
<path d="M0 0 C2 1 2 1 2.76196289 2.75 C3.1137561 3.86375 3.1137561 3.86375 3.47265625 5 C3.73240234 5.804375 3.99214844 6.60875 4.25976562 7.4375 C4.52466797 8.283125 4.78957031 9.12875 5.0625 10 C5.59248557 11.66748457 6.12491012 13.33419657 6.66015625 15 C6.89355713 15.7425 7.12695801 16.485 7.36743164 17.25 C7.8608254 19.00236595 7.8608254 19.00236595 9 20 C10.99782126 20.15825258 13.00088834 20.25119171 15.00390625 20.31640625 C16.21884766 20.35830078 17.43378906 20.40019531 18.68554688 20.44335938 C19.96494141 20.48267578 21.24433594 20.52199219 22.5625 20.5625 C23.84576172 20.60568359 25.12902344 20.64886719 26.45117188 20.69335938 C29.63399853 20.799848 32.81690674 20.90185962 36 21 C36 21.33 36 21.66 36 22 C31.41687916 22.11605098 26.83413551 22.18720362 22.25 22.25 C20.94804688 22.28351562 19.64609375 22.31703125 18.3046875 22.3515625 C17.05429687 22.36445312 15.80390625 22.37734375 14.515625 22.390625 C13.36352539 22.41157227 12.21142578 22.43251953 11.02441406 22.45410156 C7.36117026 21.90408272 6.23662176 20.88982984 4 18 C3.2421875 15.703125 3.2421875 15.703125 2.875 13.25 C2.12768198 8.75274692 1.14403082 4.41269032 0 0 Z " fill="#23485E" transform="translate(543,836)"/>
<path d="M0 0 C3.89184848 4.42255509 5 9.19294072 5 15 C-2.59 15 -10.18 15 -18 15 C-17.34 13.68 -16.68 12.36 -16 11 C-16 11.66 -16 12.32 -16 13 C-9.73 13 -3.46 13 3 13 C2.505 11.411875 2.01 9.82375 1.5 8.1875 C0.58261252 5.24421515 0 3.09875672 0 0 Z " fill="#092842" transform="translate(544,654)"/>
<path d="M0 0 C1.98 0 3.96 0 6 0 C6 3.63 6 7.26 6 11 C4.02 11 2.04 11 0 11 C0 7.37 0 3.74 0 0 Z " fill="#2BA2AA" transform="translate(818,538)"/>
<path d="M0 0 C0.66 0 1.32 0 2 0 C2.70088156 1.74468372 3.38524009 3.49601161 4.0625 5.25 C4.44535156 6.22453125 4.82820312 7.1990625 5.22265625 8.203125 C6.01113787 11.04007395 6.02437812 12.29409552 5 15 C4.4121875 14.2265625 4.4121875 14.2265625 3.8125 13.4375 C2.9153125 12.7259375 2.9153125 12.7259375 2 12 C-0.65466049 12.23043864 -0.65466049 12.23043864 -3 13 C-2.45144652 8.428721 -1.58255197 4.32564205 0 0 Z " fill="#072841" transform="translate(519,764)"/>
<path d="M0 0 C2.31 0 4.62 0 7 0 C7 2.97 7 5.94 7 9 C4.69 9 2.38 9 0 9 C0 6.03 0 3.06 0 0 Z " fill="#31B3B7" transform="translate(733,539)"/>
<path d="M0 0 C0 3 0 3 -1.90625 5.234375 C-2.7621875 6.06453125 -3.618125 6.8946875 -4.5 7.75 C-5.41007812 8.63558594 -6.32015625 9.52117187 -7.2578125 10.43359375 C-9.58966277 12.61596644 -11.95222069 14.73256682 -14.375 16.8125 C-18.87668083 20.69576811 -22.29773009 23.85513827 -23 30 C-23.33 30 -23.66 30 -24 30 C-24.46994813 27.23495633 -24.64123024 25.68315758 -24 23 C-21.68616366 19.75849304 -18.84578554 17.14372104 -15.9375 14.4375 C-15.18533203 13.70853516 -14.43316406 12.97957031 -13.65820312 12.22851562 C-9.24393944 7.98241437 -4.68771711 3.94067056 0 0 Z " fill="#012440" transform="translate(293,238)"/>
<path d="M0 0 C1.65 0 3.3 0 5 0 C5 3.63 5 7.26 5 11 C3.35 11 1.7 11 0 11 C0 7.37 0 3.74 0 0 Z " fill="#32B5B9" transform="translate(790,538)"/>
<path d="M0 0 C1.65 0.33 3.3 0.66 5 1 C5.19335938 1.59167969 5.38671875 2.18335938 5.5859375 2.79296875 C5.84632813 3.58316406 6.10671875 4.37335937 6.375 5.1875 C6.64441406 6.00863281 6.91382813 6.82976563 7.19140625 7.67578125 C8.00274735 10.12438848 8.00274735 10.12438848 9.3125 12.875 C9.6528125 13.926875 9.6528125 13.926875 10 15 C9.01 16.485 9.01 16.485 8 18 C7.16301614 15.54285453 6.33027576 13.08441143 5.5 10.625 C5.26152344 9.92632813 5.02304687 9.22765625 4.77734375 8.5078125 C3 3.2265625 3 3.2265625 3 1 C2.34 1 1.68 1 1 1 C0.87882813 1.61488281 0.75765625 2.22976563 0.6328125 2.86328125 C0.38144531 4.07564453 0.38144531 4.07564453 0.125 5.3125 C-0.11863281 6.51326172 -0.11863281 6.51326172 -0.3671875 7.73828125 C-1 10 -1 10 -3 13 C-3.93045933 10.44855176 -4.08564091 9.25993522 -3.22265625 6.640625 C-2.83980469 5.85171875 -2.45695313 5.0628125 -2.0625 4.25 C-1.68222656 3.45078125 -1.30195312 2.6515625 -0.91015625 1.828125 C-0.60980469 1.22484375 -0.30945313 0.6215625 0 0 Z " fill="#EEF3F2" transform="translate(518,763)"/>
<path d="M0 0 C0.33 0 0.66 0 1 0 C1.30028643 10.52670777 0.41193641 20.58696894 -1 31 C-1.33 31 -1.66 31 -2 31 C-3.43373351 17.03078569 -3.43373351 17.03078569 -1 10 C-0.54689143 6.67556211 -0.25574903 3.34492814 0 0 Z " fill="#071F37" transform="translate(266,472)"/>
<path d="M0 0 C3.01598607 1.50799304 3.13739043 3.67733534 4.1875 6.8125 C4.55230469 7.87082031 4.91710937 8.92914062 5.29296875 10.01953125 C6 13 6 13 5 17 C4.34 14.36 3.68 11.72 3 9 C2.34 9 1.68 9 1 9 C0.67 9.66 0.34 10.32 0 11 C0 10.01 0 9.02 0 8 C0.66 8 1.32 8 2 8 C1.67 7.34 1.34 6.68 1 6 C0.01 7.98 -0.98 9.96 -2 12 C-3.15957207 8.52128379 -2.77456651 7.65780355 -1.5625 4.3125 C-1.13130859 3.10013672 -1.13130859 3.10013672 -0.69140625 1.86328125 C-0.46324219 1.24839844 -0.23507812 0.63351562 0 0 Z " fill="#091E36" transform="translate(537,633)"/>
<path d="M0 0 C2.51699845 2.51699845 3.10964078 4.57554146 4 8 C3.625 10.375 3.625 10.375 3 12 C2.34 10.35 1.68 8.7 1 7 C0.34 7.66 -0.32 8.32 -1 9 C-0.34 9.33 0.32 9.66 1 10 C0.01 10 -0.98 10 -2 10 C-2.33 10.66 -2.66 11.32 -3 12 C-2.49202991 7.6822542 -1.80317221 3.96697886 0 0 Z " fill="#0A1D37" transform="translate(783,633)"/>
<path d="M0 0 C2.69497729 2.69497729 2.66052214 4.19784795 3 8 C2.78996448 11.35056656 2.42767299 14.67073025 2 18 C1.67 18 1.34 18 1 18 C-0.0712828 11.97403427 -0.09945415 6.11090483 0 0 Z " fill="#011C36" transform="translate(367,451)"/>
<path d="M0 0 C3.96 0 7.92 0 12 0 C12 0.33 12 0.66 12 1 C9.03 1 6.06 1 3 1 C2.67 2.32 2.34 3.64 2 5 C-0.5625 6.25 -0.5625 6.25 -3 7 C-1.125 2.25 -1.125 2.25 0 0 Z " fill="#F1F2EE" transform="translate(652,733)"/>
<path d="M0 0 C0.99 0.99 1.98 1.98 3 3 C0.54724859 4.2263757 -1.0505781 4.11415314 -3.7890625 4.09765625 C-4.73007812 4.09443359 -5.67109375 4.09121094 -6.640625 4.08789062 C-7.62546875 4.07951172 -8.6103125 4.07113281 -9.625 4.0625 C-10.61757813 4.05798828 -11.61015625 4.05347656 -12.6328125 4.04882812 C-15.0886016 4.03702145 -17.54427104 4.020554 -20 4 C-20 3.67 -20 3.34 -20 3 C-13.73 3 -7.46 3 -1 3 C-0.67 2.01 -0.34 1.02 0 0 Z " fill="#F3F2ED" transform="translate(384,702)"/>
<path d="M0 0 C0.99 0 1.98 0 3 0 C3 2.97 3 5.94 3 9 C2.01 9 1.02 9 0 9 C0 6.03 0 3.06 0 0 Z " fill="#299BA5" transform="translate(772,538)"/>
<path d="M0 0 C-0.33 0.66 -0.66 1.32 -1 2 C-3.33744294 2.46806645 -5.69739079 2.82669794 -8.0625 3.125 C-9.99802734 3.37636719 -9.99802734 3.37636719 -11.97265625 3.6328125 C-13.47119141 3.81457031 -13.47119141 3.81457031 -15 4 C-12.83900627 1.83900627 -11.4789582 1.28436284 -8.625 0.3125 C-7.46871094 -0.09548828 -7.46871094 -0.09548828 -6.2890625 -0.51171875 C-3.79944692 -1.04278009 -2.38446982 -0.81115526 0 0 Z " fill="#051C37" transform="translate(339,533)"/>
<path d="M0 0 C0.83154245 2.32831887 1.12153694 3.6110818 0.375 6 C-1.38349554 8.5578117 -3.51402387 10.16822811 -6 12 C-4.68139111 7.38486888 -2.78644563 3.90102388 0 0 Z " fill="#092841" transform="translate(657,777)"/>
<path d="M0 0 C0.33 0.66 0.66 1.32 1 2 C1.66 2 2.32 2 3 2 C5.11161731 11.41002278 5.11161731 11.41002278 6 16 C2.11295913 11.74276476 0 5.72456601 0 0 Z " fill="#091F37" transform="translate(270,627)"/>
<path d="M0 0 C0.33 0 0.66 0 1 0 C1.33 2.31 1.66 4.62 2 7 C6.455 6.505 6.455 6.505 11 6 C7.87740563 9.12259437 4.28533288 9.14293342 0 10 C0 6.7 0 3.4 0 0 Z " fill="#37BDC0" transform="translate(379,458)"/>
<path d="M0 0 C0.99 0.33 1.98 0.66 3 1 C3.765625 2.92578125 3.765625 2.92578125 4.25 5.3125 C4.50523437 6.48232422 4.50523437 6.48232422 4.765625 7.67578125 C5.00771617 10.07651867 4.7310448 11.71809588 4 14 C3.32968281 12.0429132 2.66385317 10.08428887 2 8.125 C1.62875 7.03445313 1.2575 5.94390625 0.875 4.8203125 C0 2 0 2 0 0 Z " fill="#EDF3F1" transform="translate(803,692)"/>
<path d="M0 0 C0.66 0.33 1.32 0.66 2 1 C2.59355614 3.64860427 2.74209269 6.29197322 3 9 C2.34 8.01 1.68 7.02 1 6 C0.01 6.99 -0.98 7.98 -2 9 C-1.125 2.25 -1.125 2.25 0 0 Z " fill="#0D2137" transform="translate(249,633)"/>
<path d="M0 0 C2.6875 -0.3125 2.6875 -0.3125 6 0 C9.10164769 2.55024365 10.72566416 4.17699247 12 8 C11.34 8 10.68 8 10 8 C9.4225 7.21625 8.845 6.4325 8.25 5.625 C5.65878871 2.60192016 3.80315606 1.95078902 0 1 C0 0.67 0 0.34 0 0 Z " fill="#E6EDEE" transform="translate(406,755)"/>
<path d="M0 0 C0.99 0 1.98 0 3 0 C3.99 3.3 4.98 6.6 6 10 C5.34 10 4.68 10 4 10 C2.27735506 6.70450534 0.70554068 3.66881155 0 0 Z " fill="#EBF0EE" transform="translate(561,809)"/>
<path d="M0 0 C0.33 0 0.66 0 1 0 C1.33 3.96 1.66 7.92 2 12 C1.01 12.495 1.01 12.495 0 13 C-0.99 12.34 -1.98 11.68 -3 11 C-2.01 11 -1.02 11 0 11 C0 7.37 0 3.74 0 0 Z " fill="#021932" transform="translate(373,512)"/>
<path d="M0 0 C0.99 0.495 0.99 0.495 2 1 C2 1.66 2 2.32 2 3 C2.99 3.33 3.98 3.66 5 4 C4.34 4 3.68 4 3 4 C3 4.66 3 5.32 3 6 C3.66 6 4.32 6 5 6 C5 7.32 5 8.64 5 10 C4.34 10 3.68 10 3 10 C2.01 6.7 1.02 3.4 0 0 Z " fill="#04223B" transform="translate(539,741)"/>
<path d="M0 0 C0.66 0.33 1.32 0.66 2 1 C2 1.99 2 2.98 2 4 C1.34 4 0.68 4 0 4 C-0.33 5.98 -0.66 7.96 -1 10 C-1.66 9.67 -2.32 9.34 -3 9 C-2.01 6.03 -1.02 3.06 0 0 Z " fill="#0F2E47" transform="translate(530,656)"/>
<path d="M0 0 C0.33 0.66 0.66 1.32 1 2 C1.66 2 2.32 2 3 2 C4.4783226 4.95664519 4.06032783 7.74229737 4 11 C1.6870518 8.6870518 1.50419025 7.52095125 0.875 4.375 C0.70742188 3.55773437 0.53984375 2.74046875 0.3671875 1.8984375 C0.24601563 1.27195312 0.12484375 0.64546875 0 0 Z " fill="#04253E" transform="translate(804,627)"/>
<path d="M0 0 C3.3 0.33 6.6 0.66 10 1 C5.46780033 3.26609984 3.82227075 2.92735976 -1 2 C-0.67 1.34 -0.34 0.68 0 0 Z " fill="#ECF1EF" transform="translate(353,607)"/>
<path d="M0 0 C1.0625 1.8125 1.0625 1.8125 2 4 C1.67 4.99 1.34 5.98 1 7 C0.01 7 -0.98 7 -2 7 C-2.33 5.68 -2.66 4.36 -3 3 C-2.34 3 -1.68 3 -1 3 C-0.67 2.01 -0.34 1.02 0 0 Z " fill="#F1F3EE" transform="translate(772,659)"/>
<path d="M0 0 C0.99 0 1.98 0 3 0 C2.67 4.29 2.34 8.58 2 13 C1.67 13 1.34 13 1 13 C0.67 8.71 0.34 4.42 0 0 Z " fill="#0B445D" transform="translate(420,647)"/>
<path d="M0 0 C2.1519437 3.22791555 2.20086443 4.28400809 2 8 C1.01 8.495 1.01 8.495 0 9 C-0.66 6.36 -1.32 3.72 -2 1 C-1.34 0.67 -0.68 0.34 0 0 Z " fill="#EBEFED" transform="translate(534,798)"/>
<path d="M0 0 C2.35953094 2.35953094 2.49141413 3.77895617 3 7 C2.01 7.33 1.02 7.66 0 8 C-0.38063221 5.6739143 -0.71269945 3.33944736 -1 1 C-0.67 0.67 -0.34 0.34 0 0 Z " fill="#EDF3EF" transform="translate(577,848)"/>
<path d="M0 0 C0.66 0.33 1.32 0.66 2 1 C2 2.98 2 4.96 2 7 C1.01 7.33 0.02 7.66 -1 8 C-1.04241723 5.66705225 -1.04092937 3.33297433 -1 1 C-0.67 0.67 -0.34 0.34 0 0 Z " fill="#269AA3" transform="translate(255,461)"/>
</svg>
